<mxfile host="app.diagrams.net" modified="2024-07-02T12:58:01.845Z" agent="Mozilla/5.0 (Windows NT 10.0; Win64; x64) AppleWebKit/537.36 (KHTML, like Gecko) Chrome/126.0.0.0 Safari/537.36" etag="5bWNz-eWZ1OYny-wQqrf" version="24.6.4" type="github">
  <diagram name="Stránka-1" id="0YXbq_aRarC4rVXCrjoy">
    <mxGraphModel dx="1764" dy="1018" grid="1" gridSize="10" guides="1" tooltips="1" connect="1" arrows="1" fold="1" page="1" pageScale="1" pageWidth="827" pageHeight="1169" math="0" shadow="0">
      <root>
        <mxCell id="0" />
        <mxCell id="1" parent="0" />
        <mxCell id="o-ae5LZZXqXmOgwFXy9o-14" value="" style="rounded=0;whiteSpace=wrap;html=1;fillColor=#dae8fc;strokeColor=#6c8ebf;" vertex="1" parent="1">
          <mxGeometry x="930" y="490" width="590" height="190" as="geometry" />
        </mxCell>
        <mxCell id="o-ae5LZZXqXmOgwFXy9o-1" value="" style="rounded=0;whiteSpace=wrap;html=1;fillColor=#d5e8d4;strokeColor=#82b366;" vertex="1" parent="1">
          <mxGeometry x="30" y="40" width="1280" height="200" as="geometry" />
        </mxCell>
        <mxCell id="o-ae5LZZXqXmOgwFXy9o-2" value="Quote" style="shape=step;perimeter=stepPerimeter;whiteSpace=wrap;html=1;fixedSize=1;fillColor=#008a00;fontColor=#ffffff;strokeColor=#FFFFFF;perimeterSpacing=5;strokeWidth=5;" vertex="1" parent="1">
          <mxGeometry x="45" y="110" width="120" height="60" as="geometry" />
        </mxCell>
        <mxCell id="o-ae5LZZXqXmOgwFXy9o-4" value="Order" style="shape=step;perimeter=stepPerimeter;whiteSpace=wrap;html=1;fixedSize=1;fillColor=#008a00;fontColor=#ffffff;strokeColor=#FFFFFF;perimeterSpacing=5;strokeWidth=5;" vertex="1" parent="1">
          <mxGeometry x="165" y="110" width="120" height="60" as="geometry" />
        </mxCell>
        <mxCell id="o-ae5LZZXqXmOgwFXy9o-5" value="Delivery note" style="shape=step;perimeter=stepPerimeter;whiteSpace=wrap;html=1;fixedSize=1;fillColor=#008a00;fontColor=#ffffff;strokeColor=#FFFFFF;perimeterSpacing=5;strokeWidth=5;" vertex="1" parent="1">
          <mxGeometry x="279" y="110" width="120" height="60" as="geometry" />
        </mxCell>
        <mxCell id="o-ae5LZZXqXmOgwFXy9o-6" value="Invoice" style="shape=step;perimeter=stepPerimeter;whiteSpace=wrap;html=1;fixedSize=1;fillColor=#008a00;fontColor=#ffffff;strokeColor=#FFFFFF;perimeterSpacing=5;strokeWidth=5;" vertex="1" parent="1">
          <mxGeometry x="395" y="110" width="120" height="60" as="geometry" />
        </mxCell>
        <mxCell id="o-ae5LZZXqXmOgwFXy9o-7" value="&lt;font style=&quot;font-size: 22px;&quot;&gt;Middleware&lt;/font&gt;" style="rounded=0;whiteSpace=wrap;html=1;fillColor=#ffe6cc;strokeColor=#d79b00;" vertex="1" parent="1">
          <mxGeometry x="560" y="320" width="240" height="80" as="geometry" />
        </mxCell>
        <mxCell id="o-ae5LZZXqXmOgwFXy9o-8" value="" style="endArrow=classic;html=1;rounded=0;entryX=0.5;entryY=0;entryDx=0;entryDy=0;strokeColor=#009900;exitX=0.25;exitY=1;exitDx=0;exitDy=0;fontSize=20;strokeWidth=3;" edge="1" parent="1" source="o-ae5LZZXqXmOgwFXy9o-1" target="o-ae5LZZXqXmOgwFXy9o-7">
          <mxGeometry width="50" height="50" relative="1" as="geometry">
            <mxPoint x="690" y="380" as="sourcePoint" />
            <mxPoint x="740" y="330" as="targetPoint" />
          </mxGeometry>
        </mxCell>
        <mxCell id="o-ae5LZZXqXmOgwFXy9o-9" value="Customer" style="shape=step;perimeter=stepPerimeter;whiteSpace=wrap;html=1;fixedSize=1;fillColor=#0050ef;fontColor=#ffffff;strokeColor=#FFFFFF;perimeterSpacing=5;strokeWidth=5;" vertex="1" parent="1">
          <mxGeometry x="950" y="560" width="120" height="60" as="geometry" />
        </mxCell>
        <mxCell id="o-ae5LZZXqXmOgwFXy9o-10" value="Invoice" style="shape=step;perimeter=stepPerimeter;whiteSpace=wrap;html=1;fixedSize=1;fillColor=#0050ef;fontColor=#ffffff;strokeColor=#FFFFFF;perimeterSpacing=5;strokeWidth=5;" vertex="1" parent="1">
          <mxGeometry x="1060" y="560" width="120" height="60" as="geometry" />
        </mxCell>
        <mxCell id="o-ae5LZZXqXmOgwFXy9o-11" value="Payment&amp;nbsp;&lt;div&gt;monitoring&lt;/div&gt;" style="shape=step;perimeter=stepPerimeter;whiteSpace=wrap;html=1;fixedSize=1;fillColor=#0050ef;fontColor=#ffffff;strokeColor=#FFFFFF;perimeterSpacing=5;strokeWidth=5;" vertex="1" parent="1">
          <mxGeometry x="1170" y="560" width="120" height="60" as="geometry" />
        </mxCell>
        <mxCell id="o-ae5LZZXqXmOgwFXy9o-12" value="Reminder" style="shape=step;perimeter=stepPerimeter;whiteSpace=wrap;html=1;fixedSize=1;fillColor=#0050ef;fontColor=#ffffff;strokeColor=#FFFFFF;perimeterSpacing=5;strokeWidth=5;" vertex="1" parent="1">
          <mxGeometry x="1280" y="560" width="120" height="60" as="geometry" />
        </mxCell>
        <mxCell id="o-ae5LZZXqXmOgwFXy9o-13" value="Accounting" style="shape=step;perimeter=stepPerimeter;whiteSpace=wrap;html=1;fixedSize=1;fillColor=#0050ef;fontColor=#ffffff;strokeColor=#FFFFFF;perimeterSpacing=5;strokeWidth=5;" vertex="1" parent="1">
          <mxGeometry x="1390" y="560" width="120" height="60" as="geometry" />
        </mxCell>
        <mxCell id="o-ae5LZZXqXmOgwFXy9o-16" value="" style="endArrow=classic;html=1;rounded=0;exitX=0.5;exitY=1;exitDx=0;exitDy=0;strokeColor=#0000FF;fontSize=20;strokeWidth=3;" edge="1" parent="1" source="o-ae5LZZXqXmOgwFXy9o-7" target="o-ae5LZZXqXmOgwFXy9o-17">
          <mxGeometry width="50" height="50" relative="1" as="geometry">
            <mxPoint x="1000" y="480" as="sourcePoint" />
            <mxPoint x="770" y="450" as="targetPoint" />
          </mxGeometry>
        </mxCell>
        <mxCell id="o-ae5LZZXqXmOgwFXy9o-17" value="&lt;font style=&quot;font-size: 22px;&quot;&gt;API&lt;/font&gt;" style="rounded=0;whiteSpace=wrap;html=1;fillColor=#dae8fc;strokeColor=#000000;" vertex="1" parent="1">
          <mxGeometry x="920" y="470" width="150" height="50" as="geometry" />
        </mxCell>
        <mxCell id="o-ae5LZZXqXmOgwFXy9o-18" style="edgeStyle=orthogonalEdgeStyle;rounded=0;orthogonalLoop=1;jettySize=auto;html=1;entryX=0.385;entryY=0.214;entryDx=0;entryDy=0;entryPerimeter=0;" edge="1" parent="1" source="o-ae5LZZXqXmOgwFXy9o-17" target="o-ae5LZZXqXmOgwFXy9o-9">
          <mxGeometry relative="1" as="geometry" />
        </mxCell>
        <mxCell id="o-ae5LZZXqXmOgwFXy9o-19" value="XML" style="text;html=1;align=center;verticalAlign=middle;resizable=0;points=[];autosize=1;strokeColor=none;fillColor=none;fontSize=22;" vertex="1" parent="1">
          <mxGeometry x="540" y="243" width="70" height="40" as="geometry" />
        </mxCell>
        <mxCell id="o-ae5LZZXqXmOgwFXy9o-21" value="OLAP" style="shape=step;perimeter=stepPerimeter;whiteSpace=wrap;html=1;fixedSize=1;fillColor=#008a00;fontColor=#ffffff;strokeColor=#FFFFFF;perimeterSpacing=5;strokeWidth=5;" vertex="1" parent="1">
          <mxGeometry x="1170" y="110" width="120" height="60" as="geometry" />
        </mxCell>
        <mxCell id="o-ae5LZZXqXmOgwFXy9o-23" style="edgeStyle=orthogonalEdgeStyle;rounded=0;orthogonalLoop=1;jettySize=auto;html=1;exitX=0.5;exitY=0;exitDx=0;exitDy=0;" edge="1" parent="1" source="o-ae5LZZXqXmOgwFXy9o-22" target="o-ae5LZZXqXmOgwFXy9o-21">
          <mxGeometry relative="1" as="geometry" />
        </mxCell>
        <mxCell id="o-ae5LZZXqXmOgwFXy9o-24" style="edgeStyle=orthogonalEdgeStyle;rounded=0;orthogonalLoop=1;jettySize=auto;html=1;exitX=0.5;exitY=1;exitDx=0;exitDy=0;entryX=0.5;entryY=0;entryDx=0;entryDy=0;" edge="1" parent="1" source="o-ae5LZZXqXmOgwFXy9o-22" target="o-ae5LZZXqXmOgwFXy9o-11">
          <mxGeometry relative="1" as="geometry" />
        </mxCell>
        <mxCell id="o-ae5LZZXqXmOgwFXy9o-22" value="BANK" style="whiteSpace=wrap;html=1;" vertex="1" parent="1">
          <mxGeometry x="1170" y="330" width="120" height="60" as="geometry" />
        </mxCell>
        <mxCell id="o-ae5LZZXqXmOgwFXy9o-25" value="" style="shape=step;perimeter=stepPerimeter;whiteSpace=wrap;html=1;fixedSize=1;fillColor=#DEF2DD;strokeColor=#82b366;" vertex="1" parent="1">
          <mxGeometry x="520" y="110" width="640" height="60" as="geometry" />
        </mxCell>
        <mxCell id="o-ae5LZZXqXmOgwFXy9o-27" value="BEXIO" style="text;html=1;align=center;verticalAlign=middle;whiteSpace=wrap;rounded=0;fontSize=25;fontStyle=1" vertex="1" parent="1">
          <mxGeometry x="950" y="640" width="60" height="30" as="geometry" />
        </mxCell>
        <mxCell id="o-ae5LZZXqXmOgwFXy9o-30" value="K2 Software" style="text;html=1;align=center;verticalAlign=middle;whiteSpace=wrap;rounded=0;fontSize=25;fontStyle=1" vertex="1" parent="1">
          <mxGeometry x="13" y="60" width="205" height="30" as="geometry" />
        </mxCell>
        <mxCell id="o-ae5LZZXqXmOgwFXy9o-31" value="Zeptat se Aničky, jestli OLAP bude davat report ISOTRA SWISS nebo ISOTRA a.s." style="text;html=1;align=center;verticalAlign=middle;resizable=0;points=[];autosize=1;strokeColor=none;fillColor=none;" vertex="1" parent="1">
          <mxGeometry x="20" y="320" width="460" height="30" as="geometry" />
        </mxCell>
      </root>
    </mxGraphModel>
  </diagram>
</mxfile>
